<svg width="60" height="60" viewBox="0 0 60 60" fill="none" xmlns="http://www.w3.org/2000/svg">
<path fill-rule="evenodd" clip-rule="evenodd" d="M21.5625 24.75L22.0312 24.495L30.4688 29.0887V39.5887L30 39.8437L21.5625 35.25V24.75Z" fill="#1687C9"/>
<path fill-rule="evenodd" clip-rule="evenodd" d="M38.4375 24.75L37.9688 24.495L29.5312 29.0887L30 29.3437V39.8437L38.4375 35.25V24.75Z" fill="#0977BE"/>
<path fill-rule="evenodd" clip-rule="evenodd" d="M38.4375 24.75L30 29.3438L21.5625 24.75L30 20.1562L38.4375 24.75ZM30 5.15625C28.1892 5.15625 26.7187 6.62672 26.7187 8.4375C26.7187 10.2483 28.1892 11.7188 30 11.7188C31.8108 11.7188 33.2812 10.2483 33.2812 8.4375C33.2812 6.62672 31.8108 5.15625 30 5.15625ZM30 7.03125C30.7762 7.03125 31.4062 7.66125 31.4062 8.4375C31.4062 9.21375 30.7762 9.84375 30 9.84375C29.2237 9.84375 28.5937 9.21375 28.5937 8.4375C28.5937 7.66125 29.2237 7.03125 30 7.03125ZM30 48.2812C28.1892 48.2812 26.7187 49.7517 26.7187 51.5625C26.7187 53.3733 28.1892 54.8438 30 54.8438C31.8108 54.8438 33.2812 53.3733 33.2812 51.5625C33.2812 49.7517 31.8108 48.2812 30 48.2812ZM30 50.1562C30.7762 50.1562 31.4062 50.7863 31.4062 51.5625C31.4062 52.3387 30.7762 52.9688 30 52.9688C29.2237 52.9688 28.5937 52.3387 28.5937 51.5625C28.5937 50.7863 29.2237 50.1562 30 50.1562ZM51.5151 17.5781C50.61 16.0097 48.6014 15.4716 47.033 16.3772C45.4645 17.2828 44.9264 19.2909 45.832 20.8594C46.7376 22.4278 48.7458 22.9659 50.3142 22.0603C51.8826 21.1547 52.4208 19.1466 51.5151 17.5781ZM49.8914 18.5156C50.2795 19.1878 50.0489 20.0484 49.3767 20.4366C48.7045 20.8247 47.8439 20.5941 47.4558 19.9219C47.0676 19.2497 47.2983 18.3891 47.9705 18.0009C48.6426 17.6128 49.5033 17.8434 49.8914 18.5156ZM14.168 39.1406C13.2623 37.5722 11.2542 37.0341 9.68577 37.9397C8.11733 38.8453 7.57921 40.8534 8.48483 42.4219C9.38999 43.9903 11.3986 44.5284 12.967 43.6228C14.5355 42.7172 15.0736 40.7091 14.168 39.1406ZM12.5442 40.0781C12.9323 40.7503 12.7017 41.6109 12.0295 41.9991C11.3573 42.3872 10.4967 42.1566 10.1086 41.4844C9.72046 40.8122 9.95108 39.9516 10.6233 39.5634C11.2955 39.1753 12.1561 39.4059 12.5442 40.0781ZM51.5151 42.4219C52.4208 40.8534 51.8826 38.8453 50.3142 37.9397C48.7458 37.0341 46.7376 37.5722 45.832 39.1406C44.9264 40.7091 45.4645 42.7172 47.033 43.6228C48.6014 44.5284 50.61 43.9903 51.5151 42.4219ZM49.8914 41.4844C49.5033 42.1566 48.6426 42.3872 47.9705 41.9991C47.2983 41.6109 47.0676 40.7503 47.4558 40.0781C47.8439 39.4059 48.7045 39.1753 49.3767 39.5634C50.0489 39.9516 50.2795 40.8122 49.8914 41.4844ZM14.168 20.8594C15.0736 19.2909 14.5355 17.2828 12.967 16.3772C11.3986 15.4716 9.38999 16.0097 8.48483 17.5781C7.57921 19.1466 8.11733 21.1547 9.68577 22.0603C11.2542 22.9659 13.2623 22.4278 14.168 20.8594ZM12.5442 19.9219C12.1561 20.5941 11.2955 20.8247 10.6233 20.4366C9.95108 20.0484 9.72046 19.1878 10.1086 18.5156C10.4967 17.8434 11.3573 17.6128 12.0295 18.0009C12.7017 18.3891 12.9323 19.2497 12.5442 19.9219Z" fill="#2898D4"/>
<path fill-rule="evenodd" clip-rule="evenodd" d="M44.2233 44.9419C43.0641 46.0439 41.7581 47.0273 40.3125 47.8617C38.8669 48.6961 37.3622 49.3359 35.8284 49.7883C35.332 49.935 35.048 50.4567 35.1947 50.9531C35.3409 51.4491 35.8627 51.7331 36.3591 51.5869C38.032 51.0933 39.6736 50.3958 41.25 49.4855C42.8264 48.5752 44.2514 47.5027 45.5152 46.3003C45.8902 45.9441 45.9052 45.3502 45.5484 44.9752C45.1917 44.6002 44.5978 44.5852 44.2233 44.9419ZM24.1711 49.7798C21.0708 48.8667 18.18 47.2298 15.7772 44.9423C15.4022 44.5856 14.8083 44.6002 14.4516 44.9747C14.0948 45.3497 14.1094 45.9436 14.4844 46.3003C17.1056 48.7959 20.2589 50.5823 23.6414 51.5784C24.1378 51.7247 24.6595 51.4402 24.8058 50.9437C24.9516 50.4478 24.6675 49.9261 24.1711 49.7798ZM9.94828 34.8464C9.16875 31.6219 9.19594 28.2998 9.95578 25.1583C10.0772 24.6553 9.76782 24.1481 9.26485 24.0267C8.76188 23.9048 8.25469 24.2147 8.13328 24.7177C7.30453 28.1447 7.275 31.7691 8.12578 35.287C8.24719 35.79 8.75438 36.0994 9.25735 35.978C9.76032 35.8561 10.0697 35.3494 9.94828 34.8464ZM50.0517 25.1536C50.8313 28.3781 50.8041 31.7002 50.0442 34.8417C49.9228 35.3447 50.2322 35.8519 50.7352 35.9733C51.2381 36.0952 51.7453 35.7853 51.8667 35.2823C52.6955 31.8553 52.725 28.2309 51.8742 24.713C51.7528 24.21 51.2456 23.9006 50.7427 24.022C50.2397 24.1439 49.9303 24.6506 50.0517 25.1536ZM15.7767 15.0581C16.9359 13.9561 18.2419 12.9727 19.6875 12.1383C21.1331 11.3039 22.6378 10.6641 24.1716 10.2117C24.668 10.065 24.952 9.54328 24.8053 9.04687C24.6591 8.55093 24.1373 8.26687 23.6409 8.41312C21.968 8.90672 20.3264 9.60422 18.75 10.5145C17.1736 11.4248 15.7486 12.4973 14.4848 13.6997C14.1098 14.0559 14.0948 14.6498 14.4516 15.0248C14.8083 15.3998 15.4022 15.4148 15.7767 15.0581ZM35.8289 10.2202C38.9292 11.1333 41.82 12.7702 44.2228 15.0577C44.5978 15.4144 45.1917 15.3998 45.5484 15.0253C45.9052 14.6503 45.8906 14.0564 45.5156 13.6997C42.8944 11.2041 39.7411 9.41765 36.3586 8.42156C35.8622 8.27531 35.3405 8.55984 35.1942 9.05625C35.0484 9.55218 35.3325 10.0739 35.8289 10.2202ZM29.0625 42.6562V45.9375C29.0625 46.455 29.4825 46.875 30 46.875C30.5175 46.875 30.9375 46.455 30.9375 45.9375V42.6562C30.9375 42.1387 30.5175 41.7187 30 41.7187C29.4825 41.7187 29.0625 42.1387 29.0625 42.6562ZM29.0625 14.0625V17.3437C29.0625 17.8612 29.4825 18.2812 30 18.2812C30.5175 18.2812 30.9375 17.8612 30.9375 17.3437V14.0625C30.9375 13.545 30.5175 13.125 30 13.125C29.4825 13.125 29.0625 13.545 29.0625 14.0625ZM18.5705 35.5162L15.7289 37.1569C15.2808 37.4156 15.127 37.9894 15.3858 38.4375C15.6445 38.8856 16.2183 39.0394 16.6664 38.7806L19.508 37.14C19.9561 36.8812 20.1098 36.3075 19.8511 35.8594C19.5923 35.4112 19.0186 35.2575 18.5705 35.5162ZM43.3336 21.2194L40.492 22.86C40.0439 23.1187 39.8902 23.6925 40.1489 24.1406C40.4077 24.5887 40.9814 24.7425 41.4295 24.4837L44.2711 22.8431C44.7192 22.5844 44.873 22.0106 44.6142 21.5625C44.3555 21.1144 43.7817 20.9606 43.3336 21.2194ZM44.2711 37.1569L41.4295 35.5162C40.9814 35.2575 40.4077 35.4112 40.1489 35.8594C39.8902 36.3075 40.0439 36.8812 40.492 37.14L43.3336 38.7806C43.7817 39.0394 44.3555 38.8856 44.6142 38.4375C44.873 37.9894 44.7192 37.4156 44.2711 37.1569ZM19.508 22.86L16.6664 21.2194C16.2183 20.9606 15.6445 21.1144 15.3858 21.5625C15.127 22.0106 15.2808 22.5844 15.7289 22.8431L18.5705 24.4837C19.0186 24.7425 19.5923 24.5887 19.8511 24.1406C20.1098 23.6925 19.9561 23.1187 19.508 22.86Z" fill="#FDD603"/>
<path fill-rule="evenodd" clip-rule="evenodd" d="M21.0938 24.75V35.25C21.0938 35.4286 21.1936 35.5837 21.3408 35.663L23.6822 36.9375C23.9095 37.0613 24.1941 36.9773 24.3178 36.75C24.4416 36.5231 24.3577 36.2381 24.1303 36.1144L22.0313 34.9716V25.5389L29.5313 29.6222V39.0548L26.0053 37.1353C25.778 37.0116 25.4934 37.0955 25.3697 37.3228C25.2459 37.5502 25.3298 37.8347 25.5572 37.9584L29.7759 40.2553C29.9156 40.3317 30.0844 40.3317 30.2241 40.2553L38.6592 35.663C38.8064 35.5837 38.9063 35.4286 38.9063 35.25V24.75C38.9063 24.5784 38.8125 24.4205 38.6616 24.3384L30.2241 19.7447C30.0844 19.6683 29.9156 19.6683 29.7759 19.7447L21.3384 24.3384C21.1875 24.4205 21.0938 24.5784 21.0938 24.75ZM37.9688 25.5389L34.4428 27.4584C34.2155 27.5822 33.9309 27.4983 33.8072 27.2709C33.6834 27.0436 33.7674 26.7591 33.9947 26.6353L37.4573 24.75L30 20.6902L22.5427 24.75L30 28.8098L32.0142 27.7134C32.2416 27.5897 32.5266 27.6736 32.6503 27.9009C32.7741 28.1283 32.6897 28.4128 32.4628 28.5366L30.4688 29.6222V39.0548L37.9688 34.9716V25.5389ZM26.9231 10.5806C27.6009 11.5519 28.7269 12.1875 30 12.1875C32.0695 12.1875 33.75 10.507 33.75 8.4375C33.75 6.36797 32.0695 4.6875 30 4.6875C27.9305 4.6875 26.25 6.36797 26.25 8.4375C26.25 8.69625 26.46 8.90625 26.7188 8.90625C26.9775 8.90625 27.1875 8.69625 27.1875 8.4375C27.1875 6.88547 28.448 5.625 30 5.625C31.552 5.625 32.8125 6.88547 32.8125 8.4375C32.8125 9.98953 31.552 11.25 30 11.25C29.0452 11.25 28.2005 10.7728 27.6919 10.0444C27.5438 9.83203 27.2513 9.78 27.0394 9.92813C26.827 10.0763 26.775 10.3688 26.9231 10.5806ZM30 6.5625C28.965 6.5625 28.125 7.4025 28.125 8.4375C28.125 9.4725 28.965 10.3125 30 10.3125C31.035 10.3125 31.875 9.4725 31.875 8.4375C31.875 7.4025 31.035 6.5625 30 6.5625ZM30 7.5C30.5175 7.5 30.9375 7.92 30.9375 8.4375C30.9375 8.955 30.5175 9.375 30 9.375C29.4825 9.375 29.0625 8.955 29.0625 8.4375C29.0625 7.92 29.4825 7.5 30 7.5ZM33.0769 49.4194C32.3991 48.4481 31.2731 47.8125 30 47.8125C27.9305 47.8125 26.25 49.493 26.25 51.5625C26.25 53.632 27.9305 55.3125 30 55.3125C32.0695 55.3125 33.75 53.632 33.75 51.5625C33.75 51.3037 33.54 51.0938 33.2813 51.0938C33.0225 51.0938 32.8125 51.3037 32.8125 51.5625C32.8125 53.1145 31.552 54.375 30 54.375C28.448 54.375 27.1875 53.1145 27.1875 51.5625C27.1875 50.0105 28.448 48.75 30 48.75C30.9548 48.75 31.7995 49.2272 32.3081 49.9556C32.4563 50.168 32.7488 50.22 32.9606 50.0719C33.173 49.9237 33.225 49.6313 33.0769 49.4194ZM30 49.6875C28.965 49.6875 28.125 50.5275 28.125 51.5625C28.125 52.5975 28.965 53.4375 30 53.4375C31.035 53.4375 31.875 52.5975 31.875 51.5625C31.875 50.5275 31.035 49.6875 30 49.6875ZM30 50.625C30.5175 50.625 30.9375 51.045 30.9375 51.5625C30.9375 52.08 30.5175 52.5 30 52.5C29.4825 52.5 29.0625 52.08 29.0625 51.5625C29.0625 51.045 29.4825 50.625 30 50.625ZM45.2789 17.6259C44.7769 18.6984 44.7895 19.9913 45.4261 21.0938C46.4611 22.8862 48.7561 23.5013 50.5486 22.4663C52.3411 21.4317 52.9561 19.1362 51.9211 17.3438C50.8866 15.5513 48.5911 14.9362 46.7986 15.9712C46.5745 16.1006 46.4977 16.3875 46.627 16.6116C46.7564 16.8356 47.0433 16.9125 47.2673 16.7831C48.6117 16.0069 50.3334 16.4681 51.1092 17.8125C51.8855 19.1569 51.4242 20.8781 50.0798 21.6544C48.7355 22.4306 47.0142 21.9694 46.238 20.625C45.7603 19.7977 45.7514 18.8278 46.1283 18.0234C46.238 17.7891 46.1367 17.5097 45.9024 17.4C45.668 17.2903 45.3886 17.3916 45.2789 17.6259ZM50.2974 18.2812C49.7799 17.385 48.6323 17.0775 47.7361 17.595C46.8398 18.1125 46.5323 19.26 47.0499 20.1562C47.5674 21.0525 48.7148 21.36 49.6111 20.8425C50.5073 20.325 50.8148 19.1775 50.2974 18.2812ZM49.4855 18.75C49.7442 19.1981 49.5905 19.7719 49.1423 20.0306C48.6942 20.2894 48.1205 20.1356 47.8617 19.6875C47.603 19.2394 47.7567 18.6656 48.2048 18.4069C48.653 18.1481 49.2267 18.3019 49.4855 18.75ZM14.7211 42.3741C15.2231 41.3016 15.2105 40.0088 14.5739 38.9062C13.5389 37.1138 11.2439 36.4987 9.45141 37.5337C7.65891 38.5683 7.04391 40.8638 8.07891 42.6562C9.11344 44.4487 11.4089 45.0638 13.2014 44.0288C13.4255 43.8994 13.5023 43.6125 13.373 43.3884C13.2436 43.1644 12.9567 43.0875 12.7327 43.2169C11.3883 43.9931 9.66657 43.5319 8.89079 42.1875C8.11454 40.8431 8.57579 39.1219 9.92016 38.3456C11.2645 37.5694 12.9858 38.0306 13.762 39.375C14.2397 40.2023 14.2486 41.1722 13.8717 41.9766C13.762 42.2109 13.8633 42.4903 14.0977 42.6C14.332 42.7097 14.6114 42.6084 14.7211 42.3741ZM12.9502 39.8438C12.4327 38.9475 11.2852 38.64 10.3889 39.1575C9.49266 39.675 9.18516 40.8225 9.70266 41.7188C10.2202 42.615 11.3677 42.9225 12.2639 42.405C13.1602 41.8875 13.4677 40.74 12.9502 39.8438ZM12.1383 40.3125C12.397 40.7606 12.2433 41.3344 11.7952 41.5931C11.347 41.8519 10.7733 41.6981 10.5145 41.25C10.2558 40.8019 10.4095 40.2281 10.8577 39.9694C11.3058 39.7106 11.8795 39.8644 12.1383 40.3125ZM48.3558 37.0448C47.1759 37.1466 46.0627 37.8037 45.4261 38.9062C44.3911 40.6987 45.0061 42.9942 46.7986 44.0288C48.5911 45.0638 50.8866 44.4487 51.9211 42.6562C52.9561 40.8638 52.3411 38.5683 50.5486 37.5337C50.3245 37.4044 50.0377 37.4813 49.9083 37.7053C49.7789 37.9294 49.8558 38.2163 50.0798 38.3456C51.4242 39.1219 51.8855 40.8431 51.1092 42.1875C50.3334 43.5319 48.6117 43.9931 47.2673 43.2169C45.923 42.4406 45.4617 40.7194 46.238 39.375C46.7156 38.5477 47.5509 38.055 48.4364 37.9791C48.6942 37.957 48.8855 37.7297 48.863 37.4719C48.8409 37.2141 48.6136 37.0228 48.3558 37.0448ZM50.2974 41.7188C50.8148 40.8225 50.5073 39.675 49.6111 39.1575C48.7148 38.64 47.5674 38.9475 47.0499 39.8438C46.5323 40.74 46.8398 41.8875 47.7361 42.405C48.6323 42.9225 49.7799 42.615 50.2974 41.7188ZM49.4855 41.25C49.2267 41.6981 48.653 41.8519 48.2048 41.5931C47.7567 41.3344 47.603 40.7606 47.8617 40.3125C48.1205 39.8644 48.6942 39.7106 49.1423 39.9694C49.5905 40.2281 49.7442 40.8019 49.4855 41.25ZM11.6442 22.9552C12.8241 22.8534 13.9373 22.1963 14.5739 21.0938C15.6089 19.3013 14.9939 17.0058 13.2014 15.9712C11.4089 14.9362 9.11344 15.5513 8.07891 17.3438C7.04391 19.1362 7.65891 21.4317 9.45141 22.4663C9.67548 22.5956 9.96235 22.5187 10.0917 22.2947C10.2211 22.0706 10.1442 21.7838 9.92016 21.6544C8.57579 20.8781 8.11454 19.1569 8.89079 17.8125C9.66657 16.4681 11.3883 16.0069 12.7327 16.7831C14.077 17.5594 14.5383 19.2806 13.762 20.625C13.2844 21.4523 12.4491 21.945 11.5636 22.0209C11.3058 22.043 11.1145 22.2703 11.137 22.5281C11.1591 22.7859 11.3864 22.9772 11.6442 22.9552ZM12.9502 20.1562C13.4677 19.26 13.1602 18.1125 12.2639 17.595C11.3677 17.0775 10.2202 17.385 9.70266 18.2812C9.18516 19.1775 9.49266 20.325 10.3889 20.8425C11.2852 21.36 12.4327 21.0525 12.9502 20.1562ZM12.1383 19.6875C11.8795 20.1356 11.3058 20.2894 10.8577 20.0306C10.4095 19.7719 10.2558 19.1981 10.5145 18.75C10.7733 18.3019 11.347 18.1481 11.7952 18.4069C12.2433 18.6656 12.397 19.2394 12.1383 19.6875ZM40.0491 50.6545C40.5328 50.4188 41.0114 50.1647 41.4844 49.8914C43.0936 48.9623 44.5481 47.8673 45.8381 46.6402C46.4006 46.1053 46.4231 45.2147 45.8883 44.6522C45.3534 44.0897 44.4623 44.0672 43.8998 44.602C42.7673 45.6792 41.4909 46.6402 40.0781 47.4558C38.6653 48.2714 37.1949 48.8967 35.6958 49.3387C34.9514 49.5586 34.5253 50.3414 34.7452 51.0858C34.9645 51.8302 35.7473 52.2563 36.4917 52.0364C37.0434 51.8738 37.5914 51.6891 38.1352 51.4828C38.377 51.3909 38.4989 51.12 38.407 50.8781C38.3152 50.6362 38.0442 50.5144 37.8023 50.6063C37.2811 50.8041 36.7552 50.9813 36.2264 51.1373C35.9784 51.2105 35.7174 51.0684 35.6442 50.8205C35.5711 50.572 35.7131 50.3114 35.9611 50.2378C37.5295 49.7752 39.0684 49.1213 40.5469 48.2677C42.0253 47.4141 43.3608 46.4086 44.5463 45.2812C44.7338 45.1031 45.0305 45.1106 45.2086 45.2981C45.3872 45.4856 45.3797 45.7823 45.1922 45.9609C43.9547 47.138 42.5592 48.1884 41.0156 49.0795C40.5619 49.3416 40.1025 49.5858 39.6384 49.8122C39.4059 49.9252 39.3089 50.2064 39.4223 50.4389C39.5358 50.6714 39.8166 50.768 40.0491 50.6545ZM19.4733 50.4131C20.767 51.0787 22.1189 51.6187 23.5092 52.028C24.2536 52.2473 25.0359 51.8208 25.2553 51.0764C25.4747 50.332 25.0481 49.5492 24.3033 49.3303C21.2738 48.4378 18.4481 46.838 16.1002 44.603C15.5381 44.0677 14.647 44.0897 14.1122 44.6517C13.5769 45.2138 13.5989 46.1048 14.1609 46.6397C15.2156 47.6437 16.3547 48.5353 17.5589 49.3097C17.7769 49.4494 18.067 49.3861 18.2067 49.1686C18.3469 48.9511 18.2836 48.6609 18.0661 48.5208C16.9111 47.7788 15.8189 46.9238 14.8074 45.9609C14.6199 45.7823 14.6128 45.4856 14.7909 45.2981C14.9695 45.1106 15.2663 45.1036 15.4538 45.2817C17.9114 47.6213 20.8678 49.2956 24.0384 50.2294C24.2869 50.3025 24.4289 50.5636 24.3558 50.8116C24.2827 51.0595 24.022 51.202 23.7741 51.1289C22.4405 50.7361 21.1434 50.2181 19.9017 49.5797C19.672 49.4611 19.3889 49.552 19.2708 49.7822C19.1522 50.0123 19.2431 50.295 19.4733 50.4131ZM9.92485 31.8328C9.72516 29.6203 9.89532 27.4017 10.4114 25.2684C10.5938 24.5138 10.1292 23.7534 9.37501 23.5711C8.62032 23.3883 7.86001 23.8528 7.67766 24.6075C6.83157 28.1062 6.80204 31.8061 7.67016 35.3972C7.85251 36.1514 8.61282 36.6159 9.36751 36.4336C10.1217 36.2512 10.5863 35.4905 10.4039 34.7362C10.3177 34.38 10.2417 34.0228 10.1756 33.6652C10.1288 33.4106 9.88407 33.2419 9.62954 33.2892C9.37547 33.3361 9.20672 33.5808 9.2536 33.8348C9.32297 34.2098 9.40219 34.5839 9.49266 34.9566C9.55313 35.2078 9.39844 35.4614 9.14719 35.5223C8.89548 35.5828 8.64188 35.4281 8.58141 35.1769C7.74844 31.7325 7.77751 28.1836 8.58891 24.8278C8.64985 24.5761 8.90298 24.4214 9.15469 24.4823C9.40594 24.5428 9.5611 24.7964 9.50016 25.0481C8.96016 27.2803 8.78204 29.602 8.9911 31.9172C9.01407 32.175 9.24235 32.3653 9.50016 32.3419C9.75751 32.3184 9.94782 32.0906 9.92485 31.8328ZM50.1113 28.6252C50.25 30.6853 50.0691 32.7455 49.5886 34.7316C49.4063 35.4862 49.8708 36.2466 50.625 36.4289C51.3797 36.6117 52.14 36.1472 52.3223 35.3925C53.1684 31.8937 53.198 28.1939 52.3298 24.6028C52.1475 23.8486 51.3872 23.3841 50.6325 23.5664C49.8783 23.7488 49.4138 24.5095 49.5961 25.2638C49.7189 25.7714 49.8211 26.2814 49.9031 26.7928C49.9444 27.0483 50.1849 27.2227 50.4403 27.1814C50.6958 27.1406 50.8702 26.8997 50.8289 26.6447C50.7431 26.1089 50.6358 25.575 50.5074 25.0434C50.4469 24.7922 50.6016 24.5386 50.8528 24.4777C51.1045 24.4172 51.3581 24.5719 51.4186 24.8231C52.2516 28.2675 52.2225 31.8164 51.4111 35.1722C51.3502 35.4239 51.097 35.5786 50.8453 35.5177C50.5941 35.4572 50.4389 35.2036 50.4999 34.9519C51.0023 32.8739 51.1917 30.7181 51.0469 28.5623C51.0295 28.3041 50.8059 28.1086 50.5477 28.1259C50.2894 28.1433 50.0939 28.3669 50.1113 28.6252ZM16.6017 11.3419C15.7331 11.9644 14.9194 12.6394 14.1619 13.3598C13.5994 13.8947 13.5769 14.7853 14.1117 15.3478C14.6466 15.9103 15.5377 15.9328 16.1002 15.398C17.2327 14.3208 18.5091 13.3598 19.9219 12.5442C21.3347 11.7286 22.8052 11.1033 24.3042 10.6612C25.0486 10.4414 25.4747 9.65859 25.2548 8.91422C25.0355 8.16984 24.2527 7.74375 23.5083 7.96359C21.8006 8.4675 20.1249 9.17953 18.5156 10.1086C18.2916 10.238 18.2147 10.5248 18.3441 10.7489C18.4734 10.973 18.7603 11.0498 18.9844 10.9205C20.528 10.0289 22.1353 9.34641 23.7736 8.86266C24.0216 8.78953 24.2827 8.93156 24.3558 9.17953C24.4289 9.42797 24.2869 9.68859 24.0389 9.76219C22.4705 10.2248 20.9316 10.8787 19.4531 11.7323C17.9747 12.5859 16.6392 13.5914 15.4538 14.7188C15.2663 14.8969 14.9695 14.8894 14.7914 14.7019C14.6128 14.5144 14.6203 14.2177 14.8078 14.0391C15.5344 13.3486 16.3148 12.7013 17.1483 12.1041C17.3583 11.9536 17.4066 11.6602 17.2561 11.4502C17.1052 11.2397 16.8122 11.1914 16.6017 11.3419ZM43.8998 15.397C44.4619 15.9323 45.353 15.9103 45.8878 15.3483C46.4231 14.7863 46.4011 13.8952 45.8391 13.3603C43.163 10.8127 39.9441 8.98875 36.4908 7.97203C35.7464 7.75266 34.9641 8.17922 34.7447 8.92359C34.5253 9.66797 34.9519 10.4508 35.6967 10.6697C38.0939 11.3756 40.3631 12.5245 42.3689 14.0808C42.5733 14.2392 42.8681 14.2022 43.0266 13.9978C43.185 13.7934 43.148 13.4986 42.9436 13.3402C40.8445 11.7117 38.4699 10.5094 35.9616 9.77063C35.7131 9.6975 35.5711 9.43641 35.6442 9.18844C35.7174 8.94047 35.978 8.79797 36.2259 8.87109C39.5381 9.84656 42.6258 11.5959 45.1927 14.0391C45.3802 14.2177 45.3872 14.5144 45.2091 14.7019C45.0305 14.8894 44.7338 14.8964 44.5463 14.7183C44.3588 14.5397 44.062 14.5472 43.8834 14.7347C43.7053 14.9217 43.7123 15.2189 43.8998 15.397ZM28.5938 45.9375C28.5938 46.7137 29.2238 47.3438 30 47.3438C30.7763 47.3438 31.4063 46.7137 31.4063 45.9375V42.6562C31.4063 41.88 30.7763 41.25 30 41.25C29.2238 41.25 28.5938 41.88 28.5938 42.6562V44.0625C28.5938 44.3213 28.8038 44.5312 29.0625 44.5312C29.3213 44.5312 29.5313 44.3213 29.5313 44.0625V42.6562C29.5313 42.3975 29.7413 42.1875 30 42.1875C30.2588 42.1875 30.4688 42.3975 30.4688 42.6562V45.9375C30.4688 46.1963 30.2588 46.4062 30 46.4062C29.7413 46.4062 29.5313 46.1963 29.5313 45.9375C29.5313 45.6787 29.3213 45.4688 29.0625 45.4688C28.8038 45.4688 28.5938 45.6787 28.5938 45.9375ZM31.4063 14.0625C31.4063 13.2863 30.7763 12.6562 30 12.6562C29.2238 12.6562 28.5938 13.2863 28.5938 14.0625V17.3438C28.5938 18.12 29.2238 18.75 30 18.75C30.7763 18.75 31.4063 18.12 31.4063 17.3438V15.9375C31.4063 15.6788 31.1963 15.4688 30.9375 15.4688C30.6788 15.4688 30.4688 15.6788 30.4688 15.9375V17.3438C30.4688 17.6025 30.2588 17.8125 30 17.8125C29.7413 17.8125 29.5313 17.6025 29.5313 17.3438V14.0625C29.5313 13.8038 29.7413 13.5938 30 13.5938C30.2588 13.5938 30.4688 13.8038 30.4688 14.0625C30.4688 14.3212 30.6788 14.5312 30.9375 14.5312C31.1963 14.5312 31.4063 14.3212 31.4063 14.0625ZM15.4945 36.7509C14.8224 37.1391 14.5917 37.9997 14.9799 38.6719C15.368 39.3441 16.2286 39.5747 16.9008 39.1866L19.7424 37.5459C20.4145 37.1578 20.6452 36.2972 20.257 35.625C19.8694 34.9528 19.0083 34.7222 18.3361 35.1103L17.1094 35.8186C16.8853 35.948 16.8084 36.2348 16.9378 36.4589C17.0672 36.683 17.3541 36.7598 17.5781 36.6305L18.8049 35.9222C19.0289 35.7928 19.3158 35.8697 19.4452 36.0938C19.5745 36.3178 19.4977 36.6047 19.2736 36.7341L16.432 38.3747C16.208 38.5041 15.9211 38.4272 15.7917 38.2031C15.6623 37.9791 15.7392 37.6922 15.9633 37.5628C16.1874 37.4334 16.2642 37.1466 16.1349 36.9225C16.0055 36.6984 15.7186 36.6216 15.4945 36.7509ZM44.5055 23.2491C45.1777 22.8609 45.4083 22.0003 45.0202 21.3281C44.632 20.6559 43.7714 20.4253 43.0992 20.8134L40.2577 22.4541C39.5855 22.8422 39.3549 23.7028 39.743 24.375C40.1306 25.0472 40.9917 25.2778 41.6639 24.8897L42.8906 24.1814C43.1147 24.052 43.1916 23.7652 43.0622 23.5411C42.9328 23.317 42.6459 23.2402 42.4219 23.3695L41.1952 24.0778C40.9711 24.2072 40.6842 24.1303 40.5548 23.9062C40.4255 23.6822 40.5023 23.3953 40.7264 23.2659L43.568 21.6253C43.792 21.4959 44.0789 21.5728 44.2083 21.7969C44.3377 22.0209 44.2608 22.3078 44.0367 22.4372C43.8127 22.5666 43.7358 22.8534 43.8652 23.0775C43.9945 23.3016 44.2814 23.3784 44.5055 23.2491ZM43.0992 39.1866C43.7714 39.5747 44.632 39.3441 45.0202 38.6719C45.4083 37.9997 45.1777 37.1391 44.5055 36.7509L41.6639 35.1103C40.9917 34.7222 40.1306 34.9528 39.743 35.625C39.3549 36.2972 39.5855 37.1578 40.2577 37.5459L41.4844 38.2542C41.7084 38.3836 41.9953 38.3067 42.1247 38.0827C42.2541 37.8586 42.1772 37.5717 41.9531 37.4423L40.7264 36.7341C40.5023 36.6047 40.4255 36.3178 40.5548 36.0938C40.6842 35.8697 40.9711 35.7928 41.1952 35.9222L44.0367 37.5628C44.2608 37.6922 44.3377 37.9791 44.2083 38.2031C44.0789 38.4272 43.792 38.5041 43.568 38.3747C43.3439 38.2453 43.057 38.3222 42.9277 38.5462C42.7983 38.7703 42.8752 39.0572 43.0992 39.1866ZM16.9008 20.8134C16.2286 20.4253 15.368 20.6559 14.9799 21.3281C14.5917 22.0003 14.8224 22.8609 15.4945 23.2491L18.3361 24.8897C19.0083 25.2778 19.8694 25.0472 20.257 24.375C20.6452 23.7028 20.4145 22.8422 19.7424 22.4541L18.5156 21.7458C18.2916 21.6164 18.0047 21.6933 17.8753 21.9173C17.7459 22.1414 17.8228 22.4283 18.0469 22.5577L19.2736 23.2659C19.4977 23.3953 19.5745 23.6822 19.4452 23.9062C19.3158 24.1303 19.0289 24.2072 18.8049 24.0778L15.9633 22.4372C15.7392 22.3078 15.6623 22.0209 15.7917 21.7969C15.9211 21.5728 16.208 21.4959 16.432 21.6253C16.6561 21.7547 16.943 21.6778 17.0724 21.4538C17.2017 21.2297 17.1249 20.9428 16.9008 20.8134Z" fill="black"/>
</svg>
