<svg width="8" height="8" viewBox="0 0 8 8" fill="none" xmlns="http://www.w3.org/2000/svg">
<path d="M3.232 3.544C3.252 3.412 3.296 3.296 3.352 3.196C3.408 3.096 3.488 3.012 3.588 2.948C3.684 2.888 3.804 2.86 3.952 2.856C4.044 2.86 4.128 2.876 4.204 2.908C4.284 2.944 4.356 2.992 4.412 3.052C4.468 3.112 4.512 3.184 4.548 3.264C4.584 3.344 4.6 3.432 4.604 3.52H5.32C5.312 3.332 5.276 3.16 5.208 3.004C5.14 2.848 5.048 2.712 4.928 2.6C4.808 2.488 4.664 2.4 4.496 2.336C4.328 2.272 4.144 2.244 3.94 2.244C3.68 2.244 3.452 2.288 3.26 2.38C3.068 2.472 2.908 2.592 2.78 2.748C2.652 2.904 2.556 3.084 2.496 3.292C2.436 3.5 2.4 3.716 2.4 3.948V4.056C2.4 4.288 2.432 4.504 2.492 4.712C2.552 4.92 2.648 5.1 2.776 5.252C2.904 5.404 3.064 5.528 3.256 5.616C3.448 5.704 3.676 5.752 3.936 5.752C4.124 5.752 4.3 5.72 4.464 5.66C4.628 5.6 4.772 5.516 4.896 5.408C5.02 5.3 5.12 5.176 5.192 5.032C5.264 4.888 5.308 4.736 5.312 4.572H4.596C4.592 4.656 4.572 4.732 4.536 4.804C4.5 4.876 4.452 4.936 4.392 4.988C4.332 5.04 4.264 5.08 4.184 5.108C4.108 5.136 4.028 5.144 3.944 5.148C3.8 5.144 3.68 5.116 3.588 5.056C3.488 4.992 3.408 4.908 3.352 4.808C3.296 4.708 3.252 4.588 3.232 4.456C3.212 4.324 3.2 4.188 3.2 4.056V3.948C3.2 3.808 3.212 3.676 3.232 3.544ZM4 0C1.792 0 0 1.792 0 4C0 6.208 1.792 8 4 8C6.208 8 8 6.208 8 4C8 1.792 6.208 0 4 0ZM4 7.2C2.236 7.2 0.8 5.764 0.8 4C0.8 2.236 2.236 0.8 4 0.8C5.764 0.8 7.2 2.236 7.2 4C7.2 5.764 5.764 7.2 4 7.2Z" fill="white"/>
</svg>
