<svg width="12" height="12" viewBox="0 0 12 12" fill="none" xmlns="http://www.w3.org/2000/svg">
<path d="M3.32649 0C1.49226 0 0 1.48636 0 3.31332V8.61464C0 10.4416 1.49226 11.928 3.32649 11.928H8.64886C10.4831 11.928 11.9753 10.4416 11.9753 8.61464V3.31332C11.9753 1.48636 10.4831 0 8.64886 0H3.32649ZM3.32649 1.32533H8.64886C9.74926 1.32533 10.6448 2.21728 10.6448 3.31332V8.61464C10.6448 9.71069 9.74926 10.6026 8.64886 10.6026H3.32649C2.22608 10.6026 1.33059 9.71069 1.33059 8.61464V3.31332C1.33059 2.21728 2.22608 1.32533 3.32649 1.32533ZM9.31416 1.98799C9.13771 1.98799 8.96849 2.05781 8.84372 2.18208C8.71895 2.30636 8.64886 2.47491 8.64886 2.65066C8.64886 2.82641 8.71895 2.99496 8.84372 3.11923C8.96849 3.24351 9.13771 3.31332 9.31416 3.31332C9.49061 3.31332 9.65983 3.24351 9.78459 3.11923C9.90936 2.99496 9.97946 2.82641 9.97946 2.65066C9.97946 2.47491 9.90936 2.30636 9.78459 2.18208C9.65983 2.05781 9.49061 1.98799 9.31416 1.98799ZM5.98767 2.65066C4.15345 2.65066 2.66119 4.13702 2.66119 5.96398C2.66119 7.79095 4.15345 9.27731 5.98767 9.27731C7.8219 9.27731 9.31416 7.79095 9.31416 5.96398C9.31416 4.13702 7.8219 2.65066 5.98767 2.65066ZM5.98767 3.97599C7.08807 3.97599 7.98356 4.86793 7.98356 5.96398C7.98356 7.06003 7.08807 7.95198 5.98767 7.95198C4.88727 7.95198 3.99178 7.06003 3.99178 5.96398C3.99178 4.86793 4.88727 3.97599 5.98767 3.97599Z" fill="white"/>
</svg>
