<svg width="11" height="10" viewBox="0 0 11 10" fill="none" xmlns="http://www.w3.org/2000/svg">
<g clip-path="url(#clip0_44_290)">
<path d="M10.2385 0.0106201L6.03833 3.13002L6.81521 1.28956L10.2385 0.0106201Z" fill="#E2761B" stroke="#E2761B" stroke-linecap="round" stroke-linejoin="round"/>
<path d="M0.542419 0.0106201L4.70884 3.15954L3.96998 1.28956L0.542419 0.0106201Z" fill="#E4761B" stroke="#E4761B" stroke-linecap="round" stroke-linejoin="round"/>
<path d="M8.72723 7.24142L7.60864 8.95531L10.0021 9.61368L10.6902 7.27944L8.72723 7.24142Z" fill="#E4761B" stroke="#E4761B" stroke-linecap="round" stroke-linejoin="round"/>
<path d="M0.0991821 7.27944L0.783037 9.61368L3.17653 8.95531L2.05794 7.24142L0.0991821 7.27944Z" fill="#E4761B" stroke="#E4761B" stroke-linecap="round" stroke-linejoin="round"/>
<path d="M3.04147 4.34565L2.37439 5.35466L4.75089 5.46021L4.66658 2.90637L3.04147 4.34565Z" fill="#E4761B" stroke="#E4761B" stroke-linecap="round" stroke-linejoin="round"/>
<path d="M7.73947 4.34566L6.09334 2.87686L6.03833 5.46022L8.4108 5.35467L7.73947 4.34566Z" fill="#E4761B" stroke="#E4761B" stroke-linecap="round" stroke-linejoin="round"/>
<path d="M3.17651 8.95533L4.60326 8.25873L3.37063 7.29623L3.17651 8.95533Z" fill="#E4761B" stroke="#E4761B" stroke-linecap="round" stroke-linejoin="round"/>
<path d="M6.17761 8.25873L7.60861 8.95533L7.41025 7.29623L6.17761 8.25873Z" fill="#E4761B" stroke="#E4761B" stroke-linecap="round" stroke-linejoin="round"/>
<path d="M7.60861 8.95533L6.17761 8.25873L6.29166 9.1917L6.27892 9.58418L7.60861 8.95533Z" fill="#D7C1B3" stroke="#D7C1B3" stroke-linecap="round" stroke-linejoin="round"/>
<path d="M3.17651 8.95533L4.50621 9.58418L4.49771 9.1917L4.60326 8.25873L3.17651 8.95533Z" fill="#D7C1B3" stroke="#D7C1B3" stroke-linecap="round" stroke-linejoin="round"/>
<path d="M4.52723 6.68011L3.33685 6.32969L4.17681 5.9455L4.52723 6.68011Z" fill="#233447" stroke="#233447" stroke-linecap="round" stroke-linejoin="round"/>
<path d="M6.25366 6.68011L6.60408 5.9455L7.44828 6.32969L6.25366 6.68011Z" fill="#233447" stroke="#233447" stroke-linecap="round" stroke-linejoin="round"/>
<path d="M3.17651 8.95531L3.37912 7.24142L2.05792 7.27944L3.17651 8.95531Z" fill="#CD6116" stroke="#CD6116" stroke-linecap="round" stroke-linejoin="round"/>
<path d="M7.40601 7.24142L7.60861 8.95531L8.72721 7.27944L7.40601 7.24142Z" fill="#CD6116" stroke="#CD6116" stroke-linecap="round" stroke-linejoin="round"/>
<path d="M8.4108 5.35468L6.03833 5.46023L6.25793 6.68012L6.60835 5.94551L7.45255 6.3297L8.4108 5.35468Z" fill="#CD6116" stroke="#CD6116" stroke-linecap="round" stroke-linejoin="round"/>
<path d="M3.33688 6.3297L4.18108 5.94551L4.52726 6.68012L4.75089 5.46023L2.37439 5.35468L3.33688 6.3297Z" fill="#CD6116" stroke="#CD6116" stroke-linecap="round" stroke-linejoin="round"/>
<path d="M2.37439 5.35468L3.37065 7.29623L3.33688 6.3297L2.37439 5.35468Z" fill="#E4751F" stroke="#E4751F" stroke-linecap="round" stroke-linejoin="round"/>
<path d="M7.45254 6.3297L7.41028 7.29623L8.41079 5.35468L7.45254 6.3297Z" fill="#E4751F" stroke="#E4751F" stroke-linecap="round" stroke-linejoin="round"/>
<path d="M4.75086 5.46024L4.52722 6.68013L4.80586 8.11941L4.86915 6.22416L4.75086 5.46024Z" fill="#E4751F" stroke="#E4751F" stroke-linecap="round" stroke-linejoin="round"/>
<path d="M6.03833 5.46024L5.9245 6.21991L5.97505 8.11941L6.25793 6.68013L6.03833 5.46024Z" fill="#E4751F" stroke="#E4751F" stroke-linecap="round" stroke-linejoin="round"/>
<path d="M6.25792 6.6801L5.97504 8.11939L6.17764 8.2587L7.41028 7.29621L7.45255 6.32968L6.25792 6.6801Z" fill="#F6851B" stroke="#F6851B" stroke-linecap="round" stroke-linejoin="round"/>
<path d="M3.33685 6.32968L3.37062 7.29621L4.60326 8.2587L4.80587 8.11939L4.52723 6.6801L3.33685 6.32968Z" fill="#F6851B" stroke="#F6851B" stroke-linecap="round" stroke-linejoin="round"/>
<path d="M6.27892 9.58417L6.29166 9.1917L6.18611 9.09868H4.59477L4.49771 9.1917L4.50621 9.58417L3.17651 8.95532L3.64077 9.33505L4.58203 9.98939H6.19886L7.14436 9.33505L7.60862 8.95532L6.27892 9.58417Z" fill="#C0AD9E" stroke="#C0AD9E" stroke-linecap="round" stroke-linejoin="round"/>
<path d="M6.17765 8.2587L5.97504 8.11938H4.8059L4.60329 8.2587L4.49774 9.19168L4.5948 9.09866H6.18614L6.29169 9.19168L6.17765 8.2587Z" fill="#161616" stroke="#161616" stroke-linecap="round" stroke-linejoin="round"/>
<path d="M10.4158 3.33263L10.7745 1.61046L10.2385 0.0106201L6.17761 3.02447L7.73944 4.34567L9.9471 4.99151L10.4368 4.4217L10.2257 4.26985L10.5634 3.96169L10.3018 3.75908L10.6394 3.50147L10.4158 3.33263Z" fill="#763D16" stroke="#763D16" stroke-linecap="round" stroke-linejoin="round"/>
<path d="M0.0106201 1.61046L0.369325 3.33263L0.141445 3.50147L0.479125 3.75908L0.221723 3.96169L0.559403 4.26985L0.3483 4.4217L0.833795 4.99151L3.04146 4.34567L4.60328 3.02447L0.542413 0.0106201L0.0106201 1.61046Z" fill="#763D16" stroke="#763D16" stroke-linecap="round" stroke-linejoin="round"/>
<path d="M9.94713 4.99151L7.73946 4.34567L8.41079 5.35468L7.41028 7.29623L8.72723 7.27945H10.6902L9.94713 4.99151Z" fill="#F6851B" stroke="#F6851B" stroke-linecap="round" stroke-linejoin="round"/>
<path d="M3.04146 4.34567L0.833795 4.99151L0.0991821 7.27945H2.05794L3.37064 7.29623L2.37438 5.35468L3.04146 4.34567Z" fill="#F6851B" stroke="#F6851B" stroke-linecap="round" stroke-linejoin="round"/>
<path d="M6.03831 5.46022L6.17763 3.02446L6.81944 1.28955H3.96997L4.60328 3.02446L4.75088 5.46022L4.80164 6.22839L4.80589 8.11939H5.97503L5.98352 6.22839L6.03831 5.46022Z" fill="#F6851B" stroke="#F6851B" stroke-linecap="round" stroke-linejoin="round"/>
</g>
<defs>
<clipPath id="clip0_44_290">
<rect width="10.7852" height="10" fill="white"/>
</clipPath>
</defs>
</svg>
