<svg width="15" height="12" viewBox="0 0 15 12" fill="none" xmlns="http://www.w3.org/2000/svg">
<path d="M14.9683 0C14.3845 0.345144 13.2132 0.815524 12.5247 0.951196C12.5045 0.956414 12.488 0.963123 12.4686 0.968341C11.8601 0.370489 11.0264 0 10.1036 0C8.24376 0 6.73571 1.50208 6.73571 3.35453C6.73571 3.45218 6.72748 3.63184 6.73571 3.72726C4.22629 3.72726 2.31634 2.41824 0.946742 0.745451C0.797808 1.11818 0.732696 1.70708 0.732696 2.26021C0.732696 3.30459 1.55221 4.33033 2.82825 4.9662C2.59325 5.02658 2.3343 5.06981 2.06487 5.06981C1.63004 5.06981 1.16977 4.95576 0.748412 4.60987C0.748412 4.62254 0.748412 4.63447 0.748412 4.64789C0.748412 6.10748 2.30361 7.10117 3.68668 7.37773C3.40603 7.54247 2.84023 7.55887 2.56406 7.55887C2.36947 7.55887 1.68093 7.47017 1.49682 7.43588C1.88151 8.63233 3.26907 9.30472 4.59151 9.32858C3.5572 10.1366 2.83948 10.4363 0.72147 10.4363H0C1.33816 11.2906 3.0423 11.928 4.75017 11.928C10.3109 11.928 13.4714 7.70647 13.4714 3.72726C13.4714 3.66315 13.4699 3.52897 13.4677 3.39404C13.4677 3.38062 13.4714 3.36795 13.4714 3.35453C13.4714 3.3344 13.4654 3.31502 13.4654 3.29489C13.4632 3.19351 13.4609 3.09884 13.4587 3.04964C14.0499 2.62473 14.5626 2.09472 14.9683 1.4909C14.4257 1.73094 13.8434 1.89196 13.2319 1.96501C13.8561 1.59228 14.743 0.703706 14.9683 0ZM11.9746 3.72726C11.9746 6.7687 9.76154 9.9883 5.63854 10.3938C6.19686 9.99948 6.73571 9.43965 6.73571 9.43965C6.73571 9.43965 4.49048 7.45526 4.32208 4.86258C5.09669 5.09814 5.90348 5.21816 6.73571 5.21816H8.23254V3.35453C8.23403 2.32581 9.07076 1.49165 10.1036 1.49165C11.1371 1.49165 11.9746 2.32581 11.9746 3.35528C11.9746 3.35528 11.9746 3.66837 11.9746 3.72726Z" fill="white"/>
</svg>
