<svg width="60" height="60" viewBox="0 0 60 60" fill="none" xmlns="http://www.w3.org/2000/svg">
<g clip-path="url(#clip0_11_117)">
<path d="M8.50745 17.1888H13.4798V18.5192H8.50745V17.1888Z" fill="#1687C9"/>
<path d="M8.50745 13.5059H14.8304V14.8362H8.50745V13.5059Z" fill="#1687C9"/>
<path d="M8.50745 9.82281H13.4793V11.1532H8.50745V9.82281Z" fill="#1687C9"/>
<path d="M24.5212 33.9805C24.5641 34.0738 23.8899 32.6138 23.8592 32.5471H19.9813L19.5999 33.9805H24.5212Z" fill="#1687C9"/>
<path d="M14.3072 30.3148L13.192 36.2061H37.0322L35.917 30.3148H33.4158L31.1147 31.3136C31.2696 31.4009 31.3917 31.539 31.4386 31.716L32.1362 34.3562C32.3532 34.7914 32.0285 35.3101 31.5177 35.3101C31.515 35.3107 31.5098 35.3104 31.5043 35.3101L18.7142 35.3104C18.5017 35.3104 18.3015 35.2151 18.1712 35.0525C18.0418 34.8902 17.9962 34.6784 18.0491 34.4789L18.7851 31.7148C18.8637 31.4212 19.137 31.2159 19.4499 31.2159H23.2438L22.8271 30.3148L14.3072 30.3148Z" fill="#1687C9"/>
<path d="M25.9635 41.0085H24.2572V43.7059L25.0964 44.6451L25.9636 43.7006L25.9635 41.0085Z" fill="#1687C9"/>
<path d="M28.2747 32.5469C28.4704 32.4619 25.3155 33.8313 24.9718 33.9803H30.6209L30.2416 32.5469H28.2747Z" fill="#1687C9"/>
<path d="M27.3365 43.9543C27.3365 44.1175 27.2747 44.275 27.163 44.3966L26.6197 44.9882H28.8889C29.2681 44.9882 29.5752 45.2862 29.5752 45.6535C29.5752 46.0209 29.2684 46.3189 28.8889 46.3189H21.3328C20.9536 46.3189 20.6464 46.0209 20.6464 45.6535C20.6464 45.2862 20.9533 44.9882 21.3328 44.9882H23.5871L23.0526 44.3898C22.9446 44.2685 22.8852 44.1139 22.8852 43.9543V41.0088H15.1043V49.3779L35.117 49.3777V41.0085L27.3367 41.0088L27.3365 43.9543Z" fill="#1687C9"/>
<path d="M34.6113 12.627C31.7139 13.8845 29.586 16.2928 28.7319 19.2085L31.9833 17.7976L32.7288 15.0848L34.0544 15.4271L33.3162 18.1127L32.1974 22.201C32.131 22.4453 32.2795 22.6984 32.5325 22.7637C32.7739 22.8253 33.0493 22.6731 33.1148 22.4367L34.3539 17.9259L35.0168 18.0962C36.6346 18.5143 38.317 17.5904 38.7525 15.9922L38.8873 15.5071L40.2129 15.8541C40.1064 16.1034 39.9655 17.5409 38.5014 18.6306L39.326 20.416C40.0903 19.9849 40.6859 19.3343 41.004 18.5232C41.2655 17.8575 41.3291 17.14 41.1869 16.4469C40.7809 14.4632 43.0419 14.0838 43.3496 13.861L41.4167 9.67389L34.6113 12.627Z" fill="#1687C9"/>
<path d="M35.3414 19.504L34.4408 22.7803C34.1848 23.7105 33.1538 24.2951 32.1847 24.0517C31.1872 23.7961 30.6116 22.81 30.8704 21.8615L31.53 19.4523L21.3557 23.8675C21.3855 23.9318 21.38 23.9203 21.3773 23.9144C21.3943 23.9513 21.7082 24.6305 25.2892 32.384L40.3321 25.8536L37.294 19.2769C36.67 19.4914 35.9959 19.5704 35.3412 19.504L35.3414 19.504Z" fill="#1687C9"/>
<path d="M13.0518 39.6782H37.1703V37.5394L13.0518 37.5397V39.6782Z" fill="#1687C9"/>
<path d="M21.3778 23.9145C21.3763 23.9113 21.3769 23.9122 21.3778 23.9145V23.9145Z" fill="#1687C9"/>
<path d="M16.1391 13.5059H18.0385V14.8362H16.1391V13.5059Z" fill="#1687C9"/>
<path d="M47.8705 48.9957H51.4924V50.3261H47.8705V48.9957Z" fill="#1687C9"/>
<path d="M46.5202 45.3126H51.4925V46.6429H46.5202V45.3126Z" fill="#1687C9"/>
<path d="M47.8705 41.6301H51.4924V42.9605H47.8705V41.6301Z" fill="#1687C9"/>
<path d="M43.9869 45.3126H45.8863V46.6429H43.9869V45.3126Z" fill="#1687C9"/>
</g>
<defs>
<clipPath id="clip0_11_117">
<rect width="60" height="60" fill="white"/>
</clipPath>
</defs>
</svg>
