<svg width="15" height="12" viewBox="0 0 15 12" fill="none" xmlns="http://www.w3.org/2000/svg">
<path d="M7.48459 0C7.48459 0 2.80339 -2.33729e-05 1.63579 0.311595C0.991369 0.483059 0.484978 0.988192 0.312833 1.62932C-2.34657e-05 2.7923 0 5.96398 0 5.96398C0 5.96398 -2.34657e-05 9.13567 0.312833 10.2986C0.484978 10.9405 0.992118 11.4449 1.63579 11.6164C2.80339 11.928 7.48459 11.928 7.48459 11.928C7.48459 11.928 12.1658 11.928 13.3334 11.6164C13.9771 11.4449 14.4842 10.9398 14.6564 10.2986C14.9692 9.13567 14.9692 5.96398 14.9692 5.96398C14.9692 5.96398 14.9692 2.7923 14.6564 1.62932C14.4842 0.988192 13.9771 0.483059 13.3334 0.311595C12.1658 -2.33729e-05 7.48459 0 7.48459 0ZM7.48459 1.491C9.64165 1.491 12.3427 1.5906 12.946 1.75163C13.0725 1.78518 13.1762 1.88844 13.2106 2.01517C13.391 2.68463 13.4723 4.72795 13.4723 5.96398C13.4723 7.20002 13.391 9.24259 13.2106 9.91279C13.1769 10.0388 13.0732 10.142 12.946 10.1763C12.3435 10.3374 9.64165 10.437 7.48459 10.437C5.32828 10.437 2.62719 10.3374 2.02318 10.1763C1.89669 10.1428 1.79302 10.0395 1.75859 9.91279C1.57821 9.24333 1.49692 7.20002 1.49692 5.96398C1.49692 4.72795 1.57821 2.68467 1.75859 2.01372C1.79227 1.88847 1.89594 1.78518 2.02318 1.75163C2.62569 1.5906 5.32753 1.491 7.48459 1.491ZM5.98767 3.38095V8.54702L10.4784 5.96398L5.98767 3.38095Z" fill="white"/>
</svg>
